<svg xmlns="http://www.w3.org/2000/svg" viewBox="0 0 133.56 49.78">
  <defs>
    <style>.cls-1{fill:#b5000d;}.cls-2{fill:#d1d3d4;}</style>
  </defs>
  <g id="Camada_2" data-name="Camada 2">
    <g id="Layer_1" data-name="Layer 1">
      <path class="cls-1" d="M127.71.06c-1,.17-2.2.34-3.45.52-.92,4.81-2.92,10.81-7.35,14-8.11,5.85-50.13,7.88-50.13,7.88s-42-2-50.14-7.88c-4.42-3.2-6.43-9.2-7.34-14C8.05.4,6.89.23,5.85.06A5.1,5.1,0,0,0,.18,6.47C2.72,15.84,8.59,23.74,15.86,30.3a76.3,76.3,0,0,0,101.84,0c7.26-6.56,13.14-14.46,15.67-23.83A5.09,5.09,0,0,0,127.71.06Z" />
      <path class="cls-2" d="M16.64,14.59c8.11,5.85,50.14,7.88,50.14,7.88s42-2,50.13-7.88c4.43-3.2,6.43-9.2,7.35-14A457.72,457.72,0,0,1,66.78,5.2,457.72,457.72,0,0,1,9.3.58C10.21,5.39,12.22,11.39,16.64,14.59Z" />
    </g>
  </g>
</svg>